<svg width="8" height="10" viewBox="0 0 8 10" fill="none" xmlns="http://www.w3.org/2000/svg">
<path fill-rule="evenodd" clip-rule="evenodd" d="M2.25353 3.53126L0.789903 6.148C0.665459 6.336 0.595459 6.56 0.595459 6.8C0.595459 7.11826 0.718375 7.42348 0.937168 7.64853C1.15596 7.87357 1.45271 8 1.76213 8H6.42879C6.51044 8 6.59121 7.9912 6.6699 7.9741L5.90041 7.2H1.76213C1.65899 7.2 1.56007 7.15786 1.48714 7.08284C1.41421 7.00783 1.37324 6.90609 1.37324 6.8C1.37324 6.716 1.40046 6.636 1.44324 6.572L2.82655 4.10771L2.25353 3.53126ZM6.46353 6.0658L4.48435 2.54V0.8H3.70657V2.54L3.43668 3.0208L2.86226 2.44295L2.92879 2.324V1.6C2.82565 1.6 2.72674 1.55786 2.65381 1.48284C2.58088 1.40783 2.5399 1.30609 2.5399 1.2V0.8C2.5399 0.587827 2.62185 0.384344 2.76771 0.234315C2.91357 0.0842854 3.1114 0 3.31768 0H4.87324C5.07952 0 5.27735 0.0842854 5.42321 0.234315C5.56907 0.384344 5.65101 0.587827 5.65101 0.8V1.2C5.65101 1.30609 5.61004 1.40783 5.53711 1.48284C5.46418 1.55786 5.36527 1.6 5.26213 1.6V2.324L7.40101 6.148C7.52546 6.336 7.59546 6.56 7.59546 6.8C7.59546 6.92065 7.57779 7.03943 7.54394 7.15268L6.46353 6.0658Z" fill="white"/>
<rect y="1.43205" width="0.612381" height="10.6945" transform="rotate(-44.8288 0 1.43205)" fill="white"/>
</svg>
