<svg width="13" height="13" viewBox="0 0 13 13" fill="none" xmlns="http://www.w3.org/2000/svg">
<circle cx="6.5" cy="6.5" r="6.5" fill="#58A158"/>
<path d="M4.20549 8.52013C4.20549 8.61326 4.24146 8.70257 4.30548 8.76842C4.36951 8.83428 4.45634 8.87127 4.54689 8.87127H8.64361C8.73415 8.87127 8.82099 8.83428 8.88501 8.76842C8.94904 8.70257 8.985 8.61326 8.985 8.52013C8.985 8.44638 8.96111 8.37615 8.92355 8.31997L6.93664 4.7804V3.25291H6.25385V4.7804L4.26694 8.31997C4.22939 8.37615 4.20549 8.44638 4.20549 8.52013ZM4.54689 9.57357C4.27526 9.57357 4.01475 9.46258 3.82268 9.26502C3.63061 9.06746 3.52271 8.79952 3.52271 8.52013C3.52271 8.30944 3.58416 8.11279 3.6934 7.94775L5.57107 4.59078V3.9552C5.48052 3.9552 5.39369 3.91821 5.32967 3.85236C5.26564 3.7865 5.22967 3.69719 5.22967 3.60406V3.25291C5.22967 3.06665 5.30161 2.88802 5.42966 2.75631C5.5577 2.62461 5.73137 2.55061 5.91246 2.55061H7.27803C7.45912 2.55061 7.63279 2.62461 7.76084 2.75631C7.88889 2.88802 7.96082 3.06665 7.96082 3.25291V3.60406C7.96082 3.69719 7.92485 3.7865 7.86083 3.85236C7.79681 3.91821 7.70997 3.9552 7.61943 3.9552V4.59078L9.49709 7.94775C9.60634 8.11279 9.66779 8.30944 9.66779 8.52013C9.66779 8.79952 9.55989 9.06746 9.36781 9.26502C9.17574 9.46258 8.91524 9.57357 8.64361 9.57357H4.54689Z" fill="white"/>
</svg>
