<svg width="7" height="8" viewBox="0 0 7 8" fill="none" xmlns="http://www.w3.org/2000/svg">
<path d="M0.777778 6.8C0.777778 6.90609 0.81875 7.00783 0.891681 7.08284C0.964612 7.15786 1.06353 7.2 1.16667 7.2H5.83333C5.93647 7.2 6.03539 7.15786 6.10832 7.08284C6.18125 7.00783 6.22222 6.90609 6.22222 6.8C6.22222 6.716 6.195 6.636 6.15222 6.572L3.88889 2.54V0.8H3.11111V2.54L0.847778 6.572C0.805 6.636 0.777778 6.716 0.777778 6.8ZM1.16667 8C0.857247 8 0.560501 7.87357 0.341709 7.64853C0.122916 7.42348 0 7.11826 0 6.8C0 6.56 0.07 6.336 0.194444 6.148L2.33333 2.324V1.6C2.23019 1.6 2.13128 1.55786 2.05835 1.48284C1.98542 1.40783 1.94444 1.30609 1.94444 1.2V0.8C1.94444 0.587827 2.02639 0.384344 2.17225 0.234315C2.31811 0.0842854 2.51594 0 2.72222 0H4.27778C4.48406 0 4.68189 0.0842854 4.82775 0.234315C4.97361 0.384344 5.05556 0.587827 5.05556 0.8V1.2C5.05556 1.30609 5.01458 1.40783 4.94165 1.48284C4.86872 1.55786 4.76981 1.6 4.66667 1.6V2.324L6.80556 6.148C6.93 6.336 7 6.56 7 6.8C7 7.11826 6.87708 7.42348 6.65829 7.64853C6.4395 7.87357 6.14275 8 5.83333 8H1.16667Z" fill="white"/>
</svg>
