<svg width="19" height="19" viewBox="0 0 19 19"  xmlns="http://www.w3.org/2000/svg">
<path d="M16.8904 2.11005C14.077 -0.703349 9.51597 -0.703349 6.70258 2.11005C3.88918 4.92325 3.88918 9.4845 6.70258 12.2979C9.51597 15.1113 14.077 15.1113 16.8904 12.2979C19.7038 9.4845 19.7038 4.92344 16.8904 2.11005ZM16.0861 11.4938C13.717 13.8628 9.87603 13.8628 7.50687 11.4938C5.13789 9.12464 5.13789 5.2835 7.50687 2.91453C9.87603 0.545551 13.7172 0.545361 16.0861 2.91453C18.4551 5.28369 18.4551 9.12444 16.0861 11.4938Z"/>
<path d="M6.97066 13.638L5.36206 12.0294L6.46686e-05 17.3914L1.60866 19L6.97066 13.638Z" />
<path d="M16.5469 7.78842V6.6009L15.1274 6.00941C15.088 5.89807 15.0463 5.79015 14.9952 5.68469L15.568 4.25824L14.7284 3.41861L13.3147 4.00078C13.2069 3.94853 13.0967 3.90454 12.9831 3.86398L12.3812 2.45386H11.1937L10.6068 3.85942C10.4886 3.90112 10.3749 3.9452 10.2624 3.99859L8.8511 3.43153L8.01147 4.27116L8.58671 5.66968C8.53104 5.78454 8.48582 5.90159 8.44288 6.02224L7.04663 6.61952V7.80704L8.44402 8.38922C8.48696 8.50987 8.53332 8.62701 8.58899 8.74177L8.0243 10.1496L8.86393 10.9892L10.266 10.4117C10.3785 10.4651 10.4933 10.508 10.6116 10.5485L11.2123 11.9541H12.3998L12.9878 10.5416C13.1003 10.4999 13.2115 10.4558 13.3183 10.4048L14.7424 10.9754L15.582 10.1357L14.9976 8.71859C15.0474 8.6119 15.088 8.50398 15.1274 8.39387L16.5469 7.78842ZM11.7874 8.98526C10.804 8.98526 10.0061 8.18743 10.0061 7.20397C10.0061 6.22051 10.804 5.42268 11.7874 5.42268C12.7709 5.42268 13.5687 6.22051 13.5687 7.20397C13.5687 8.18743 12.7709 8.98526 11.7874 8.98526Z" />
</svg>
