<svg width="22" height="22"   xmlns="http://www.w3.org/2000/svg"><path d="M19.852 8.504c-.265-1.686-.876-3.18-1.816-4.444-.58-.779-1.693-1.55-3.057-2.118C13.521 1.334 11.877 1 10.351 1c-1.684 0-3.187.384-4.467 1.14-1.489.88-2.615 2.238-3.35 4.036-1.301 3.19.162 6.583.333 6.96a.419.419 0 0 0 .187.196l12.526 6.604a.421.421 0 0 0 .422-.015c1.283-.792 2.476-2.614 3.219-4.808l.007-.021.002-.006c.206-.617.378-1.261.506-1.921.306-1.586.347-3.198.116-4.661zm-4.1 10.578L3.58 12.665a9.985 9.985 0 0 1-.62-2.213c-.238-1.471-.117-2.805.356-3.964.664-1.625 1.673-2.847 3-3.632 1.147-.679 2.505-1.023 4.035-1.023 1.416 0 2.944.312 4.302.877 1.227.51 2.213 1.183 2.705 1.844a8.798 8.798 0 0 1 1.41 2.912 60.137 60.137 0 0 1-2.745-.45c-2.457-.46-4.485-1.011-5.866-1.591l-.017-.007a2.024 2.024 0 0 0-.805-.166 2.011 2.011 0 0 0-2.02 1.993v.005c0 .116.001 2.454.598 3.667.212.428 1.056 1.091 5.715 2.755 1.928.689 3.836 1.302 4.655 1.561-.638 1.715-1.562 3.148-2.53 3.85zm3.268-10.45c.216 1.37.177 2.883-.111 4.376a14.12 14.12 0 0 1-.358 1.436c-.797-.253-2.668-.855-4.572-1.533-1.465-.522-2.66-.986-3.553-1.379-1.516-.666-1.734-.948-1.757-.983-.204-.417-.327-1.024-.4-1.604.309.192.675.303 1.066.303 1.113 0 2.02-.896 2.02-1.998 0-.182-.026-.359-.073-.527 2.949.946 6.61 1.47 7.687 1.612.018.099.036.197.051.297zM10.512 7.25c0 .642-.528 1.165-1.177 1.165A1.172 1.172 0 0 1 8.158 7.25c0-.642.528-1.165 1.177-1.165.65 0 1.177.523 1.177 1.165z" /><path d="M9.038 7.543a.424.424 0 0 0 .595 0 .413.413 0 0 0 0-.589.424.424 0 0 0-.595 0 .413.413 0 0 0 0 .59zM17.636 13.67a.424.424 0 0 0 .537-.254c.667-1.857.433-4.419.422-4.527a.42.42 0 0 0-.458-.375.418.418 0 0 0-.38.453c.002.025.226 2.489-.377 4.17a.415.415 0 0 0 .256.532zM14.95 20.215l-12.18-6.42a.423.423 0 0 0-.57.172.414.414 0 0 0 .174.563l12.18 6.421a.423.423 0 0 0 .57-.172.415.415 0 0 0-.174-.564z" /></svg>