<svg width="22" height="22"   xmlns="http://www.w3.org/2000/svg"><path d="M17 7.667c.53 0 1.04.2 1.414.558.375.357.586.841.586 1.346v9.524c0 .505-.21.99-.586 1.347A2.052 2.052 0 0 1 17 21H5c-1.11 0-2-.857-2-1.905V9.571c0-.505.21-.99.586-1.346A2.052 2.052 0 0 1 5 7.667h7.095A1.905 1.905 0 0 0 14 5.762a2.79 2.79 0 0 0-.879-2.02A3.078 3.078 0 0 0 11 2.905c-.796 0-1.559.3-2.121.837-.313.297-.55.654-.698 1.042-.197.516-.629.978-1.181.978s-1.01-.453-.89-.992a4.7 4.7 0 0 1 1.354-2.375A5.13 5.13 0 0 1 11 1c.657 0 1.307.123 1.913.362.607.24 1.158.59 1.623 1.033.464.442.832.967 1.083 1.545.252.577.381 1.197.381 1.822v.905a1 1 0 0 0 1 1zm-6 8.571c.53 0 1.04-.2 1.414-.558A1.86 1.86 0 0 0 13 14.333c0-.505-.21-.99-.586-1.347A2.052 2.052 0 0 0 11 12.43c-.53 0-1.04.2-1.414.557A1.86 1.86 0 0 0 9 14.333c0 .505.21.99.586 1.347.375.357.884.558 1.414.558z" /></svg>