<svg width="22" height="22"   xmlns="http://www.w3.org/2000/svg"><path d="M13.393 5.607L6.34 9.693l.847 1.468 7.054-4.086-.848-1.468zM13.902 16.088L6.867 12.04l-.847 1.476 7.035 4.049.847-1.476zM15.528 15.137l.003-8.158h1.693l-.003 8.159h-1.693z" /><path fill-rule="evenodd" clip-rule="evenodd" d="M18.228 7.761a3.51 3.51 0 0 0 1.283-4.786 3.49 3.49 0 0 0-4.78-1.26 3.51 3.51 0 0 0-1.283 4.786 3.49 3.49 0 0 0 4.78 1.26zm-.875-1.511a1.754 1.754 0 0 0 .642-2.393 1.744 1.744 0 0 0-2.39-.63 1.755 1.755 0 0 0-.641 2.393 1.745 1.745 0 0 0 2.39.63zM14.525 20.74a3.51 3.51 0 0 0 4.781-1.303 3.489 3.489 0 0 0-1.279-4.774 3.51 3.51 0 0 0-4.78 1.302 3.49 3.49 0 0 0 1.278 4.774zm.876-1.52c.837.48 1.907.188 2.39-.65a1.745 1.745 0 0 0-.639-2.388 1.755 1.755 0 0 0-2.39.651 1.745 1.745 0 0 0 .639 2.387zM6.495 14.587a3.51 3.51 0 0 0 1.283-4.786 3.49 3.49 0 0 0-4.78-1.26 3.51 3.51 0 0 0-1.282 4.787 3.49 3.49 0 0 0 4.78 1.26zm-.874-1.511a1.754 1.754 0 0 0 .642-2.393 1.744 1.744 0 0 0-2.39-.63 1.755 1.755 0 0 0-.642 2.393 1.745 1.745 0 0 0 2.39.63z" /></svg>