<svg width="20" height="21" viewBox="0 0 20 21" fill="none" xmlns="http://www.w3.org/2000/svg">
<path d="M10 4.59494C11.1046 4.59494 12 3.69951 12 2.59494C12 1.49037 11.1046 0.59494 10 0.59494C8.89543 0.59494 8 1.49037 8 2.59494C8 3.69951 8.89543 4.59494 10 4.59494Z" fill="#BBBBBC"/>
<path d="M7 9.59494H13C13.6 9.59494 14 9.19494 14 8.59494V8.09494C14 6.69494 12.9 5.59494 11.5 5.59494H8.5C7.1 5.59494 6 6.69494 6 8.09494V8.59494C6 9.19494 6.4 9.59494 7 9.59494Z" fill="#BBBBBC"/>
<path d="M4 15.5949C5.10457 15.5949 6 14.6995 6 13.5949C6 12.4904 5.10457 11.5949 4 11.5949C2.89543 11.5949 2 12.4904 2 13.5949C2 14.6995 2.89543 15.5949 4 15.5949Z" fill="#BBBBBC"/>
<path d="M5.5 16.5949H2.5C1.1 16.5949 0 17.6949 0 19.0949V19.5949C0 20.1949 0.4 20.5949 1 20.5949H7C7.6 20.5949 8 20.1949 8 19.5949V19.0949C8 17.6949 6.9 16.5949 5.5 16.5949Z" fill="#BBBBBC"/>
<path d="M16 15.5949C17.1046 15.5949 18 14.6995 18 13.5949C18 12.4904 17.1046 11.5949 16 11.5949C14.8954 11.5949 14 12.4904 14 13.5949C14 14.6995 14.8954 15.5949 16 15.5949Z" fill="#BBBBBC"/>
<path d="M17.5 16.5949H14.5C13.1 16.5949 12 17.6949 12 19.0949V19.5949C12 20.1949 12.4 20.5949 13 20.5949H19C19.6 20.5949 20 20.1949 20 19.5949V19.0949C20 17.6949 18.9 16.5949 17.5 16.5949Z" fill="#BBBBBC"/>
<path d="M13.2 14.2949L11 12.9949V10.5949H9.00005V12.9949L6.80005 14.2949L7.80005 15.9949L10 14.7949L12.2 15.9949L13.2 14.2949Z" fill="#BBBBBC"/>
</svg>
