<svg width="22" height="22"   xmlns="http://www.w3.org/2000/svg"><path d="M17.685 6.724l-.34.323.302.36c1.16 1.383 1.853 3.128 1.853 5.022 0 4.435-3.754 8.071-8.5 8.071-2.262 0-4.427-.856-6.02-2.373-1.59-1.515-2.48-3.566-2.48-5.698 0-2.133.89-4.184 2.48-5.7C6.574 5.214 8.739 4.358 11 4.358a8.64 8.64 0 0 1 5.314 1.8l.342.265.311-.3 1.094-1.057c.235.209.46.424.682.651l-1.058 1.008zm-11.98 10.78C7.114 18.847 9.02 19.596 11 19.596c1.982 0 3.886-.75 5.295-2.09 1.409-1.342 2.205-3.168 2.205-5.076 0-1.91-.796-3.735-2.205-5.077-1.409-1.34-3.314-2.09-5.295-2.09-1.981 0-3.886.75-5.295 2.09C4.296 8.694 3.5 10.52 3.5 12.43c0 1.908.796 3.734 2.205 5.076zM11.5 8.168v4.714h-1V8.167h1zM8.5 1.5h5v.905h-5V1.5z" stroke="#000"/></svg>