<svg width="22" height="22" viewBox="0 0 22 22" fill="none" xmlns="http://www.w3.org/2000/svg">
<path d="M11 4C10.2044 4 9.44129 4.31607 8.87868 4.87868C8.31607 5.44129 8 6.20435 8 7C8 7.79565 8.31607 8.55871 8.87868 9.12132C9.44129 9.68393 10.2044 10 11 10C11.7956 10 12.5587 9.68393 13.1213 9.12132C13.6839 8.55871 14 7.79565 14 7C14 6.20435 13.6839 5.44129 13.1213 4.87868C12.5587 4.31607 11.7956 4 11 4ZM5 6.17C4.33696 6.17 3.70107 6.43339 3.23223 6.90223C2.76339 7.37107 2.5 8.00696 2.5 8.67C2.5 8.9983 2.56466 9.32339 2.6903 9.62671C2.81594 9.93002 3.00009 10.2056 3.23223 10.4378C3.46438 10.6699 3.73998 10.8541 4.04329 10.9797C4.34661 11.1053 4.6717 11.17 5 11.17C5.88 11.17 6.65 10.71 7.09 10.03C6.42 9.18 6 8.15 6 7C6 6.8 6 6.6 6.04 6.4C5.72 6.25 5.37 6.17 5 6.17ZM17 6.17C16.63 6.17 16.28 6.25 15.96 6.4C16 6.6 16 6.8 16 7C16 8.15 15.58 9.18 14.91 10.03C15.35 10.71 16.12 11.17 17 11.17C17.3283 11.17 17.6534 11.1053 17.9567 10.9797C18.26 10.8541 18.5356 10.6699 18.7678 10.4378C18.9999 10.2056 19.1841 9.93002 19.3097 9.62671C19.4353 9.32339 19.5 8.9983 19.5 8.67C19.5 8.3417 19.4353 8.01661 19.3097 7.71329C19.1841 7.40998 18.9999 7.13438 18.7678 6.90223C18.5356 6.67009 18.26 6.48594 17.9567 6.3603C17.6534 6.23466 17.3283 6.17 17 6.17ZM11 12C9 12 5 13 5 15V17H17V15C17 13 13 12 11 12ZM3.67 12.97C2 13.26 0 14.04 0 15.33V17H3V15C3 14.22 3.29 13.53 3.67 12.97ZM18.33 12.97C18.71 13.53 19 14.22 19 15V17H22V15.33C22 14.04 20 13.26 18.33 12.97Z" fill="black"/>
</svg>
