<svg width="17" height="20" viewBox="0 0 17 20" fill="none" xmlns="http://www.w3.org/2000/svg">
  <path d="M5.63578 14.1759C5.53042 14.0916 5.40399 14.0284 5.27756 14.0284L4.39256 13.9652C3.48648 13.902 2.68576 13.4384 2.15897 12.7641L0.0518096 17.2523C-0.137835 17.6738 0.220382 18.1584 0.683957 18.0741L2.5804 17.7159C2.81219 17.6738 3.06505 17.7791 3.19148 18.0109L4.11862 19.6966C4.35041 20.1181 4.94042 20.097 5.13006 19.6545L7.174 15.2927C6.85793 15.1663 6.584 14.9977 6.31007 14.7659L5.63578 14.1759Z" fill="#58A158"/>
  <path d="M16.6564 17.2523L14.5492 12.7641C14.0224 13.4384 13.2217 13.8809 12.3156 13.9652L11.4306 14.0284C11.2831 14.0495 11.1778 14.0916 11.0724 14.1759L10.3981 14.7448C10.1453 14.9555 9.85025 15.1452 9.53418 15.2716L11.5781 19.6334C11.7678 20.0549 12.3788 20.0759 12.5896 19.6756L13.5167 17.9899C13.6431 17.7791 13.8749 17.6527 14.1278 17.6948L16.0242 18.0531C16.4878 18.1374 16.8671 17.6738 16.6564 17.2523Z" fill="#58A158"/>
  <path d="M10.2503 13.2277C10.5453 12.9748 10.9246 12.8063 11.3249 12.7852L12.2099 12.722C13.1371 12.6588 13.8746 11.9212 13.9378 10.9941L14.001 10.1091C14.0221 9.70873 14.1906 9.32944 14.4435 9.03444L15.0335 8.36015C15.6446 7.64372 15.6446 6.61121 15.0335 5.91585L14.4435 5.24156C14.1906 4.94655 14.0221 4.56727 14.001 4.16691L13.9378 3.2819C13.8746 2.35475 13.1371 1.61724 12.2099 1.55403L11.3249 1.49081C10.9246 1.46974 10.5453 1.30117 10.2503 1.04831L9.57597 0.458307C8.85954 -0.152769 7.82703 -0.152769 7.13167 0.458307L6.45738 0.985097C6.16237 1.23796 5.78309 1.40653 5.38273 1.4276L4.49772 1.49081C3.57057 1.55403 2.83306 2.29153 2.76985 3.21868L2.70664 4.10369C2.68556 4.50405 2.51699 4.88334 2.26413 5.17834L1.67413 5.85263C1.06305 6.56907 1.06305 7.60157 1.67413 8.29694L2.26413 8.97123C2.51699 9.26623 2.68556 9.64552 2.70664 10.0459L2.76985 10.9309C2.83306 11.858 3.57057 12.5955 4.49772 12.6588L5.38273 12.722C5.78309 12.743 6.16237 12.9116 6.45738 13.1645L7.13167 13.7545C7.8481 14.3656 8.88061 14.3656 9.57597 13.7545L10.2503 13.2277ZM4.39236 7.11693C4.39236 4.92548 6.16237 3.15547 8.35382 3.15547C10.5453 3.15547 12.3153 4.92548 12.3153 7.11693C12.3153 9.30837 10.5453 11.0784 8.35382 11.0784C6.16237 11.0784 4.39236 9.2873 4.39236 7.11693Z" fill="#58A158"/>
  <path d="M10.5875 6.0844L9.49182 5.87368C9.38646 5.85261 9.28111 5.7894 9.23896 5.68404L8.6911 4.69367C8.5436 4.44081 8.16431 4.44081 8.03788 4.69367L7.49002 5.68404C7.42681 5.7894 7.34252 5.85261 7.23716 5.87368L6.14144 6.0844C5.84644 6.14761 5.74108 6.50583 5.93072 6.71654L6.6893 7.53834C6.77359 7.62262 6.79466 7.72798 6.79466 7.83334L6.66823 8.95013C6.62609 9.24513 6.94216 9.45585 7.19502 9.32942L8.20646 8.84477C8.31181 8.80263 8.41717 8.80263 8.52253 8.84477L9.53396 9.32942C9.8079 9.45585 10.1029 9.24513 10.0608 8.95013L9.93433 7.83334C9.91325 7.72798 9.9554 7.60155 10.0397 7.53834L10.7983 6.71654C10.9879 6.48476 10.8825 6.14761 10.5875 6.0844Z" fill="#C94281"/>
</svg>
