<svg width="18" height="20" viewBox="0 0 18 20" fill="none" xmlns="http://www.w3.org/2000/svg">
<rect width="18" height="19.9998" fill="black" fill-opacity="0"/>
<path d="M17.8525 7.504C17.5872 5.81819 16.9759 4.3231 16.0363 3.05996C15.457 2.28114 14.343 1.50908 12.9796 0.941716C11.5206 0.334427 9.87719 0 8.35098 0C6.66683 0 5.16407 0.383882 3.88399 1.14075C2.3954 2.02055 1.26891 3.37829 0.534802 5.17583C-0.767466 8.36521 0.696445 11.7591 0.867328 12.1357C0.905587 12.2193 0.97097 12.2889 1.05361 12.3322L13.5804 18.9357C13.6427 18.9686 13.7106 18.9845 13.7785 18.9845C13.8562 18.9845 13.9333 18.9631 14.0018 18.921C15.2849 18.1287 16.4786 16.3075 17.2208 14.1126C17.2232 14.1059 17.2263 14.0992 17.2282 14.0919C17.2288 14.0895 17.2294 14.0876 17.23 14.0858C17.4367 13.4693 17.6082 12.8248 17.7359 12.165C18.0425 10.5787 18.0832 8.96671 17.8525 7.504ZM13.7526 18.0823L1.57984 11.6651C1.44165 11.3367 1.13072 10.5185 0.959244 9.45228C0.722346 7.9807 0.842651 6.64705 1.31582 5.48802C1.9796 3.86269 2.98887 2.64073 4.31581 1.85609C5.46327 1.17739 6.82105 0.833431 8.35098 0.833431C9.76739 0.833431 11.2955 1.14473 12.6532 1.70991C13.8803 2.22079 14.8661 2.89277 15.3577 3.55412C15.9944 4.40982 16.4669 5.38579 16.768 6.4658C16.1659 6.38193 15.1696 6.23208 14.0228 6.0166C11.5657 5.55545 9.53792 5.00496 8.15727 4.42478C8.15171 4.42236 8.14618 4.42052 8.14061 4.41837C7.89384 4.31157 7.62117 4.25204 7.33492 4.25204C6.22328 4.25204 5.31829 5.14594 5.3158 6.24548C5.3158 6.24637 5.3158 6.24762 5.3158 6.24852C5.3158 6.24852 5.3158 6.24942 5.3158 6.24973V6.25005C5.31517 6.36634 5.31643 8.7037 5.91357 9.91675C6.12516 10.3455 6.96907 11.0083 11.6279 12.6715C13.5564 13.3607 15.4644 13.9741 16.2831 14.2335C15.6452 15.948 14.7211 17.3805 13.7526 18.0823ZM17.0203 7.63221C17.2362 9.00183 17.1973 10.5149 16.9087 12.0082C16.8143 12.4958 16.6934 12.9768 16.5509 13.4437C15.7538 13.191 13.8828 12.5892 11.979 11.9111C10.5139 11.3893 9.31831 10.9254 8.42564 10.5323C6.91052 9.86554 6.69214 9.58443 6.66932 9.54873C6.46515 9.13153 6.34236 8.52486 6.26833 7.94531C6.57803 8.13696 6.94384 8.24805 7.33496 8.24805C8.4485 8.24805 9.35471 7.35177 9.35471 6.25009C9.35471 6.06758 9.3294 5.89117 9.28254 5.72303C12.2307 6.66877 15.8926 7.19368 16.9692 7.33501C16.9876 7.43353 17.0049 7.5324 17.0203 7.63221ZM8.51258 6.25005C8.51258 6.89214 7.9845 7.41462 7.33492 7.41462C6.68594 7.41462 6.15785 6.89214 6.15785 6.25005C6.15785 5.60791 6.68594 5.08547 7.33492 5.08547C7.98453 5.08547 8.51258 5.60791 8.51258 6.25005Z" fill="white"/>
<path d="M7.0376 6.54331C7.2017 6.70628 7.4688 6.70628 7.63293 6.54331C7.79765 6.38069 7.79765 6.117 7.63293 5.95403C7.46884 5.79137 7.20174 5.79137 7.0376 5.95403C6.87288 6.117 6.87288 6.38069 7.0376 6.54331Z" fill="white"/>
<path d="M15.6355 12.6694C15.6824 12.6859 15.7299 12.6932 15.7768 12.6932C15.9501 12.6932 16.1124 12.587 16.1735 12.4162C16.8404 10.5594 16.6059 7.9972 16.5955 7.88914C16.5739 7.65996 16.3684 7.49245 16.1371 7.5135C15.9051 7.53487 15.7355 7.73808 15.7571 7.96696C15.7595 7.99169 15.9835 10.456 15.3801 12.1372C15.3018 12.354 15.4165 12.5925 15.6355 12.6694Z" fill="white"/>
<path d="M12.95 19.2151L0.769844 12.7954C0.564414 12.6868 0.30963 12.7637 0.199828 12.9669C0.0906177 13.1702 0.16836 13.4223 0.37379 13.5303L12.5539 19.9512C12.6174 19.9842 12.6853 20.0001 12.752 20.0001C12.9025 20.0001 13.048 19.9195 13.1239 19.7792C13.2331 19.5765 13.1554 19.3238 12.95 19.2151Z" fill="white"/>
</svg>
