<svg width="31" height="31" viewBox="0 0 31 31" fill="none" xmlns="http://www.w3.org/2000/svg">
<rect width="12" height="2.48605" transform="translate(9.34863 14.2295) rotate(-30.1145)" fill="#5C94B9"/>
<rect width="11.9498" height="2.49652" transform="matrix(0.868229 0.496164 -0.500365 0.865815 10.1133 17.6494)" fill="#62AC62"/>
<rect width="11.9498" height="2.49652" transform="matrix(-0.000428298 1 0.99999 -0.00441687 22.8887 10.2402)" fill="#E8762B"/>
<path fill-rule="evenodd" clip-rule="evenodd" d="M4.99931 9.94467C7.76084 9.94443 9.99927 7.7182 9.99893 4.97242C9.99993 2.22629 7.76115 -0.000235308 4.99962 1.86526e-08C2.23809 0.000235346 -0.000336564 2.22646 3.33344e-07 4.97224C-0.00099749 7.71838 2.23827 9.94406 4.99931 9.94467ZM4.99948 7.45883C6.38049 7.45829 7.50012 6.34542 7.49953 4.97229C7.49979 3.59964 6.37997 2.48614 4.99897 2.48668C3.61845 2.48637 2.49965 3.59973 2.4994 4.97238C2.49999 6.34551 3.61896 7.45853 4.99948 7.45883Z" transform="translate(0 15.0518) rotate(-30.1145)" fill="#C4C4C4"/>
<path fill-rule="evenodd" clip-rule="evenodd" d="M4.99931 9.94467C7.76084 9.94443 9.99927 7.7182 9.99893 4.97242C9.99993 2.22629 7.76115 -0.000235308 4.99962 1.86526e-08C2.23809 0.000235346 -0.000336564 2.22646 3.33344e-07 4.97224C-0.00099749 7.71838 2.23827 9.94406 4.99931 9.94467ZM4.99948 7.45883C6.38049 7.45829 7.50012 6.34542 7.49953 4.97229C7.49979 3.59964 6.37997 2.48614 4.99897 2.48668C3.61845 2.48637 2.49965 3.59973 2.4994 4.97238C2.49931 5.30536 2.56533 5.62363 2.68471 5.91415C3.05776 6.82031 3.95412 7.45875 4.99948 7.45883Z" transform="translate(17.3008 5.0166) rotate(-30.1145)" fill="#C4C4C4"/>
<path fill-rule="evenodd" clip-rule="evenodd" d="M7.48821 9.28158C9.87688 7.89584 10.6962 4.84701 9.31829 2.47201C7.94134 0.0960377 4.88763 -0.706697 2.49895 0.679045C0.110282 2.06479 -0.709054 5.11362 0.668875 7.48862C2.04583 9.86459 5.09954 10.6664 7.48821 9.28158ZM6.24114 7.13022C7.43548 6.43686 7.84563 4.91244 7.15618 3.72494C6.4677 2.53744 4.94036 2.13608 3.74602 2.82944C2.55169 3.52182 2.14251 5.04623 2.83098 6.23373C2.99798 6.52182 3.21477 6.76401 3.4638 6.95541C4.24114 7.55209 5.33684 7.65463 6.24114 7.13022Z" transform="translate(19.126 1.83008)" fill="#5C94B9"/>
<path fill-rule="evenodd" clip-rule="evenodd" d="M2.49524 9.30244C4.88293 10.6667 7.93664 9.8376 9.31653 7.4499C10.6964 5.06221 9.88 2.02119 7.49231 0.656933C5.10461 -0.707325 2.0509 0.121777 0.671018 2.50947C-0.708865 4.89717 0.107541 7.93818 2.49524 9.30244ZM3.74426 7.14131C4.93762 7.82295 6.46496 7.40889 7.15539 6.21455C7.84485 5.02119 7.43664 3.49971 6.24231 2.81807C5.04895 2.13545 3.5216 2.55049 2.83215 3.74385C2.14172 4.93818 2.5509 6.45869 3.74426 7.14131Z" transform="translate(18.8271 20.8145)" fill="#E8762B"/>
<path fill-rule="evenodd" clip-rule="evenodd" d="M7.48821 9.28158C9.87688 7.89584 10.6962 4.84701 9.31829 2.47201C7.94134 0.0960377 4.88763 -0.706697 2.49895 0.679045C0.110282 2.06479 -0.709054 5.11362 0.668875 7.48862C2.04583 9.86459 5.09954 10.6664 7.48821 9.28158ZM7.3388 5.8226C7.58294 5.15365 7.54095 4.38705 7.15618 3.72494C6.79192 3.09701 6.19329 2.68881 5.53411 2.54623C4.94622 2.41928 4.3095 2.50229 3.74602 2.82944C3.14348 3.17905 2.74016 3.74057 2.57708 4.36362C2.4179 4.97494 2.49016 5.64584 2.83098 6.23373C3.52044 7.42123 5.0468 7.8226 6.24114 7.13022C6.76946 6.82358 7.14446 6.35385 7.3388 5.8226Z" transform="translate(1.8252 11.8301)" fill="#62AC62"/>
</svg>
