<?xml version="1.0"?>
<svg width="31" height="31" xmlns="http://www.w3.org/2000/svg" xmlns:svg="http://www.w3.org/2000/svg">
 <g class="layer">
  <title>Synapse Logo</title>
  <g id="svg_9">
   <rect fill="#FFFFFF" height="2.48605" id="svg_1" transform="matrix(0.785815 -0.455787 0.455787 0.785815 -5.44347 8.06297)" width="12" x="9.239537" y="12.544254"/>
   <rect fill="#FFFFFF" height="2.49652" id="svg_2" transform="matrix(0.788726 0.450731 -0.454547 0.786533 9.28274 18.8326)" width="11.9498" x="-2.114884" y="-1.352069"/>
   <rect fill="#FFFFFF" height="2.49652" id="svg_3" transform="matrix(-0.000389079 0.908431 0.908422 -0.00401242 20.8883 12.1019)" width="11.9498" x="-2.225098" y="-1.16064"/>
   <path clip-rule="evenodd" d="m7.503201,19.992227c2.169943,-1.258858 2.914249,-4.02851 1.662491,-6.186031c-1.250864,-2.158406 -4.024955,-2.887641 -6.194897,-1.628783c-2.169943,1.258858 -2.914253,4.028502 -1.662496,6.186023c1.250869,2.158414 4.024957,2.886758 6.194902,1.628791zm-1.13288,-1.953488c1.084972,-0.629871 1.457563,-2.014693 0.831245,-3.093451c-0.625432,-1.078768 -2.012922,-1.443374 -3.097886,-0.813508c-1.084975,0.628979 -1.45669,2.013809 -0.831251,3.092572c0.626318,1.078757 2.012922,1.443374 3.097892,0.814387z" fill="#FFFFFF" fill-rule="evenodd" id="svg_4"/>
   <path clip-rule="evenodd" d="m23.219786,10.875939c2.169943,-1.258858 2.914249,-4.02851 1.662491,-6.186031c-1.250864,-2.158406 -4.024955,-2.887641 -6.194897,-1.628783c-2.169943,1.258858 -2.914253,4.028502 -1.662496,6.186023c1.250869,2.158414 4.024957,2.886758 6.194902,1.628791zm-1.13288,-1.953488c1.084972,-0.629871 1.457563,-2.014693 0.831245,-3.093451c-0.625432,-1.078768 -2.012922,-1.443374 -3.097886,-0.813508c-1.084975,0.628979 -1.45669,2.013809 -0.831251,3.092572c0.151697,0.261702 0.34864,0.481712 0.574866,0.655595c0.706164,0.542043 1.70153,0.63519 2.523026,0.158791z" fill="#FFFFFF" fill-rule="evenodd" id="svg_5"/>
   <path clip-rule="evenodd" d="m23.219194,10.876829c2.169942,-1.258849 2.914238,-4.028501 1.662502,-6.186025c-1.250864,-2.158405 -4.02495,-2.887639 -6.194901,-1.62879c-2.169942,1.258858 -2.914247,4.028511 -1.662502,6.186035c1.250873,2.158405 4.024959,2.886794 6.194901,1.628781zm-1.132877,-1.954362c1.084976,-0.62987 1.457569,-2.0147 0.831251,-3.093462c-0.625437,-1.078762 -2.01292,-1.44337 -3.097896,-0.8135c-1.084967,0.62898 -1.456678,2.013801 -0.831251,3.092563c0.151708,0.26171 0.348647,0.481723 0.574873,0.655597c0.70616,0.542043 1.701528,0.635193 2.523022,0.158803z" fill="#FFFFFF" fill-rule="evenodd" id="svg_6"/>
   <path clip-rule="evenodd" d="m18.411896,28.141818c2.169052,1.239336 4.943137,0.486156 6.196672,-1.682905c1.253517,-2.169052 0.511874,-4.931609 -1.657178,-6.170945c-2.169061,-1.239327 -4.943146,-0.486147 -6.196672,1.682905c-1.253526,2.169061 -0.511883,4.931609 1.657178,6.170945zm1.134649,-1.963238c1.084085,0.619223 2.471569,0.243078 3.098777,-0.841898c0.626327,-1.084085 0.255496,-2.466245 -0.82947,-3.085468c-1.084085,-0.620113 -2.471578,-0.243078 -3.097896,0.841007c-0.627208,1.084967 -0.255496,2.466245 0.828589,3.086358z" fill="#FFFFFF" fill-rule="evenodd" id="svg_7"/>
   <path clip-rule="evenodd" d="m7.502609,19.961158c2.169942,-1.258849 2.914238,-4.028501 1.662502,-6.186025c-1.250864,-2.158405 -4.02495,-2.887639 -6.194901,-1.62879c-2.169942,1.258858 -2.914247,4.028511 -1.662502,6.186035c1.250873,2.158405 4.024959,2.886794 6.194901,1.628781zm-0.135729,-3.142245c0.221784,-0.607695 0.183639,-1.304098 -0.165898,-1.90558c-0.330905,-0.570431 -0.874719,-0.941253 -1.473539,-1.070777c-0.534058,-0.115325 -1.112474,-0.039916 -1.624357,0.257277c-0.547366,0.317597 -0.913755,0.827699 -1.061901,1.393697c-0.144604,0.555342 -0.078961,1.164809 0.230651,1.698866c0.626327,1.078762 2.01292,1.443379 3.097896,0.814399c0.479942,-0.278561 0.820604,-0.705279 0.997149,-1.187883z" fill="#FFFFFF" fill-rule="evenodd" id="svg_8"/>
  </g>
 </g>
</svg>