<svg width="24" height="24" viewBox="0 0 24 24" fill="none" xmlns="http://www.w3.org/2000/svg">
<rect width="24" height="24" fill="black" fill-opacity="0"/>
<path fill-rule="evenodd" clip-rule="evenodd" d="M0.0908256 4.06738C0.147124 4.03483 0.216516 4.03483 0.272813 4.06738L5.87411 7.30546C5.93064 7.33814 5.96531 7.39863 5.96493 7.46392L5.92784 13.9097C5.92746 13.9752 5.89181 14.0355 5.83454 14.0674C5.77728 14.0994 5.70726 14.098 5.65129 14.0638L0.0972073 10.6736C0.0432035 10.6407 0.0102187 10.582 0.010117 10.5187L2.35985e-07 4.22508C-0.000104299 4.16005 0.0345275 4.09992 0.0908256 4.06738ZM0.364142 4.5402L0.373587 10.4163L5.56606 13.5858L5.60069 7.56743L0.364142 4.5402Z" fill="white"/>
<path fill-rule="evenodd" clip-rule="evenodd" d="M10.8279 11.0471C10.8775 11.1344 10.8469 11.2453 10.7596 11.2949L9.10049 12.238C9.09311 12.2422 9.08556 12.2458 9.07789 12.2489L5.87311 14.0667C5.78577 14.1162 5.6748 14.0856 5.62526 13.9982C5.57572 13.9109 5.60637 13.7999 5.69371 13.7504L10.58 10.9788C10.6673 10.9293 10.7783 10.9598 10.8279 11.0471Z" fill="white"/>
<path fill-rule="evenodd" clip-rule="evenodd" d="M5.68549 13.9131C5.74178 13.8805 5.81118 13.8805 5.8675 13.9131L11.4722 17.1511C11.5288 17.1838 11.5634 17.2444 11.563 17.3097L11.5226 23.7555C11.5222 23.821 11.4865 23.8813 11.4292 23.9132C11.3719 23.9451 11.3019 23.9437 11.246 23.9095L5.69526 20.5193C5.64131 20.4864 5.60835 20.4277 5.60822 20.3645L5.59473 14.0709C5.59459 14.0058 5.6292 13.9457 5.68549 13.9131ZM5.95904 14.3859L5.97163 20.262L11.161 23.4315L11.1987 17.4131L5.95904 14.3859Z" fill="white"/>
<path fill-rule="evenodd" clip-rule="evenodd" d="M18.2016 13.9925C18.258 14.0261 18.2918 14.0874 18.2903 14.1529L18.1351 20.6697C18.1336 20.7329 18.0994 20.7908 18.0447 20.8226L12.6154 23.9762C12.5591 24.0088 12.4898 24.009 12.4334 23.9765C12.377 23.9441 12.3423 23.8841 12.3422 23.819L12.3389 17.3395C12.3388 17.2742 12.3738 17.2139 12.4305 17.1815L18.0183 13.9907C18.0753 13.9582 18.1453 13.9589 18.2016 13.9925ZM12.7026 17.4449L12.7057 23.5032L17.774 20.5593L17.9191 14.4662L12.7026 17.4449Z" fill="white"/>
<path fill-rule="evenodd" clip-rule="evenodd" d="M13.1161 11.0444C13.1672 10.958 13.2787 10.9293 13.3651 10.9804L15.0074 11.9505C15.0127 11.9536 15.0178 11.957 15.0227 11.9605L18.201 13.8399C18.2874 13.8911 18.3161 14.0026 18.2649 14.089C18.2138 14.1754 18.1023 14.2041 18.0159 14.153L13.1802 11.2935C13.0938 11.2424 13.065 11.1309 13.1161 11.0444Z" fill="white"/>
<path fill-rule="evenodd" clip-rule="evenodd" d="M23.9116 4.2132C23.9679 4.2468 24.0018 4.30811 24.0002 4.37365L23.8451 10.887C23.8436 10.9502 23.8094 11.0081 23.7547 11.0399L18.3254 14.1968C18.2692 14.2295 18.1998 14.2297 18.1434 14.1973C18.087 14.1648 18.0522 14.1048 18.0522 14.0397L18.0488 7.5568C18.0488 7.49147 18.0838 7.43114 18.1406 7.39877L23.7284 4.21139C23.7853 4.1789 23.8553 4.17959 23.9116 4.2132ZM18.4125 7.66228L18.4157 13.7237L23.484 10.7766L23.629 4.68669L18.4125 7.66228Z" fill="white"/>
<path fill-rule="evenodd" clip-rule="evenodd" d="M17.7818 0.0867817C17.8375 0.0563191 17.905 0.0570706 17.9599 0.0887645L23.3994 3.22545C23.4556 3.25788 23.4903 3.31783 23.4903 3.38275C23.4904 3.44767 23.4559 3.50771 23.3997 3.54026L17.8018 6.78511C17.7451 6.81798 17.675 6.81778 17.6185 6.78458L12.0712 3.52621C12.0147 3.49306 11.9805 3.43213 11.9815 3.36669C11.9825 3.30124 12.0185 3.24137 12.076 3.20995L17.7818 0.0867817ZM12.5318 3.37501L17.7112 6.41729L22.9453 3.38337L17.8668 0.454818L12.5318 3.37501Z" fill="white"/>
<path fill-rule="evenodd" clip-rule="evenodd" d="M12.0299 3.25587C12.1303 3.25677 12.211 3.3389 12.2101 3.43931L12.1595 9.06707C12.1586 9.16747 12.0765 9.24817 11.9761 9.24727C11.8757 9.24638 11.795 9.16426 11.7959 9.06386L11.8128 7.15413C11.8128 7.15056 11.8129 7.14701 11.8132 7.14349L11.8465 3.43605C11.8474 3.33563 11.9295 3.25496 12.0299 3.25587Z" fill="white"/>
<path fill-rule="evenodd" clip-rule="evenodd" d="M6.47516 0.0223286C6.5308 -0.00812569 6.59829 -0.00738351 6.65324 0.024287L12.096 3.16097C12.1523 3.19339 12.187 3.25335 12.1871 3.31828C12.1872 3.3832 12.1526 3.44325 12.0964 3.47581L6.49852 6.72065C6.44181 6.75352 6.37181 6.75333 6.31529 6.72015L0.76458 3.46179C0.708125 3.42864 0.673843 3.36771 0.674825 3.30226C0.675807 3.2368 0.711901 3.17692 0.769325 3.14549L6.47516 0.0223286ZM1.2252 3.31051L6.40791 6.35286L11.6419 3.31896L6.56017 0.39035L1.2252 3.31051Z" fill="white"/>
</svg>
