<?xml version="1.0" encoding="UTF-8"?><svg id="Layer_2" xmlns="http://www.w3.org/2000/svg" viewBox="0 0 282.6729 45.4901"><g id="Layer_1-2"><path d="M37.0416,10.9167l-2.8802-1.6711L20.5498,1.3215l-13.6774,7.9349-2.8581,1.668M20.5498,1.2708v19.7065" fill="none" stroke="#fff" stroke-width="2.2852"/><path d="M1.1424,15.8934l.0669,3.3211-.0567,15.75,13.7106,7.8776,2.8735,1.6412M1.1081,34.9892l17.0663-9.8532" fill="none" stroke="#fff" stroke-width="2.2852"/><path d="M23.4079,44.5123l2.8427-1.7185,13.6682-7.8259-.0331-15.8125-.0154-3.3091M39.9634,34.9937l-17.0663-9.8532" fill="none" stroke="#fff" stroke-width="2.2852"/><path d="M66.2959,33.0516c-1.4187,0-2.688-.2427-3.808-.728-1.1014-.4853-1.9787-1.1947-2.632-2.128-.6347-.9333-.9614-2.0627-.98-3.388h4.004c.0186.5787.168,1.1013.448,1.568s.6626.84,1.148,1.12c.504.2613,1.1013.392,1.792.392.5973,0,1.1106-.0933,1.54-.28.448-.2053.7933-.4853,1.036-.84.2426-.3547.364-.7747.364-1.26,0-.56-.14-1.0267-.42-1.4-.2614-.3733-.6347-.6907-1.12-.952-.4667-.2613-1.0174-.4947-1.652-.7-.616-.224-1.2694-.4573-1.96-.7-1.5494-.504-2.7347-1.176-3.556-2.016-.8027-.84-1.204-1.9507-1.204-3.332,0-1.176.28-2.184.84-3.024.5786-.84,1.372-1.484,2.38-1.932s2.156-.672,3.444-.672c1.3253,0,2.4826.2333,3.472.7,1.008.448,1.8013,1.1013,2.38,1.96.5973.8587.9053,1.8667.924,3.024h-4.032c-.0187-.4293-.1494-.8307-.392-1.204-.224-.392-.5414-.7-.952-.924-.4107-.2427-.896-.364-1.456-.364-.4854-.0187-.9334.056-1.344.224-.392.168-.7094.42-.952.756-.224.3173-.336.7187-.336,1.204,0,.4667.112.8587.336,1.176.2426.3173.5693.5973.98.84.4106.224.896.4387,1.456.644.56.1867,1.1666.3827,1.82.588.9706.336,1.8666.7373,2.688,1.204.8213.448,1.4746,1.036,1.96,1.764.4853.728.728,1.6893.728,2.884,0,1.0267-.2707,1.9787-.812,2.856-.5414.8773-1.3254,1.5867-2.352,2.128-1.008.5413-2.268.812-3.78.812ZM81.1223,33.0516c-1.176,0-2.1467-.1867-2.912-.56-.7653-.392-1.3347-.9053-1.708-1.54-.3547-.6533-.532-1.372-.532-2.156,0-.8587.2147-1.6147.644-2.268.448-.6533,1.1107-1.1667,1.988-1.54.896-.3733,2.016-.56,3.36-.56h3.5c0-.6907-.0933-1.26-.28-1.708-.1867-.4667-.476-.812-.868-1.036-.392-.224-.9147-.336-1.568-.336-.7093,0-1.316.1587-1.82.476-.4853.2987-.784.7653-.896,1.4h-3.668c.0933-1.008.42-1.876.98-2.604.5787-.7467,1.3347-1.3253,2.268-1.736.952-.4107,2.0067-.616,3.164-.616,1.3253,0,2.4733.224,3.444.672.9707.448,1.7173,1.092,2.24,1.932.5227.84.784,1.876.784,3.108v8.736h-3.192l-.42-2.156c-.2053.3733-.448.7093-.728,1.008s-.6067.56-.98.784-.7933.392-1.26.504c-.4667.1307-.98.196-1.54.196ZM82.0183,30.1396c.4853,0,.9147-.084,1.288-.252.392-.1867.728-.4293,1.008-.728.28-.3173.4947-.672.644-1.064.168-.4107.28-.8493.336-1.316v-.028h-2.884c-.5787,0-1.0547.0747-1.428.224-.3547.1307-.616.3267-.784.588-.168.2613-.252.56-.252.896,0,.3733.084.6813.252.924s.4107.4293.728.56c.3173.1307.6813.196,1.092.196ZM98.8445,39.2116c-1.344,0-2.52-.168-3.528-.504-1.008-.3173-1.792-.812-2.352-1.484-.5413-.6533-.812-1.4653-.812-2.436,0-.6533.168-1.2693.504-1.848.336-.5787.8214-1.1013,1.456-1.568.6534-.4853,1.4654-.896,2.436-1.232l1.428,1.848c-.8586.28-1.484.6253-1.876,1.036-.3733.4293-.56.8867-.56,1.372,0,.4293.14.7933.42,1.092.2987.2987.6907.5133,1.176.644.504.1493,1.064.224,1.68.224.5972,0,1.1112-.0747,1.5402-.224.448-.1493.793-.3733,1.036-.672.261-.28.392-.616.392-1.008,0-.504-.177-.9147-.532-1.232-.355-.3173-1.064-.5133-2.128-.588-.9522-.0747-1.8015-.1773-2.5482-.308-.728-.1493-1.372-.3173-1.932-.504-.56-.2053-1.036-.4293-1.428-.672-.3733-.2427-.6813-.4853-.924-.728v-.644l2.996-3.22,2.716.868-3.528,3.472,1.064-1.848c.2054.112.4014.224.588.336.2054.0933.4574.1867.756.28.2987.0747.6907.1493,1.176.224.4854.0747,1.1012.14,1.8482.196,1.232.112,2.24.3453,3.024.7.803.3547,1.391.8307,1.764,1.428.373.5787.56,1.2973.56,2.156,0,.84-.233,1.624-.7,2.352-.448.7467-1.148,1.344-2.1,1.792-.952.4667-2.156.7-3.6122.7ZM98.8445,28.5436c-1.176,0-2.1933-.224-3.052-.672-.84-.4667-1.4933-1.0827-1.96-1.848-.448-.784-.672-1.652-.672-2.604s.224-1.8107.672-2.576c.4667-.784,1.12-1.4093,1.96-1.876.8587-.4667,1.876-.7,3.052-.7,1.1952,0,2.2122.2333,3.0522.7.859.4667,1.512,1.092,1.96,1.876.448.7653.672,1.624.672,2.576s-.224,1.82-.672,2.604c-.448.7653-1.101,1.3813-1.96,1.848-.84.448-1.857.672-3.0522.672ZM98.8445,25.6596c.7282,0,1.3162-.1867,1.7642-.56.448-.3733.672-.924.672-1.652s-.224-1.2787-.672-1.652c-.448-.392-1.036-.588-1.7642-.588-.7093,0-1.2973.196-1.764.588-.448.3733-.672.924-.672,1.652s.224,1.2787.672,1.652c.4667.3733,1.0547.56,1.764.56ZM101.1967,21.2916l-.616-2.688h5.796v2.24l-5.18.448ZM115.6777,33.0516c-1.419,0-2.679-.2987-3.78-.896-1.083-.616-1.932-1.4653-2.548-2.548-.598-1.1013-.896-2.3707-.896-3.808,0-1.4747.298-2.772.896-3.892.597-1.1387,1.437-2.0253,2.52-2.66,1.101-.6533,2.37-.98,3.808-.98,1.4,0,2.622.308,3.668.924,1.045.616,1.857,1.4467,2.436,2.492.578,1.0453.868,2.2307.868,3.556v.644c0,.224-.019.4573-.056.7h-11.452v-2.296h7.7c-.056-.9147-.383-1.6333-.98-2.156-.579-.5227-1.307-.784-2.184-.784-.635,0-1.223.1493-1.764.448-.542.28-.971.7187-1.288,1.316-.299.5973-.448,1.3533-.448,2.268v.812c0,.7653.14,1.4373.42,2.016.298.56.709.9987,1.232,1.316.522.2987,1.129.448,1.82.448.69,0,1.26-.1493,1.708-.448.466-.2987.812-.6813,1.036-1.148h3.864c-.262.8773-.7,1.6707-1.316,2.38-.616.7093-1.372,1.2693-2.268,1.68-.896.4107-1.895.616-2.996.616ZM132.3627,32.7156V13.1156h6.888c1.382,0,2.52.224,3.416.672.915.4293,1.596,1.0267,2.044,1.792.448.7467.672,1.5867.672,2.52,0,1.008-.224,1.848-.672,2.52-.429.672-.998,1.1853-1.708,1.54-.69.3547-1.428.5693-2.212.644l.392-.28c.84.0187,1.615.2427,2.324.672.71.4293,1.27,1.008,1.68,1.736.43.728.644,1.54.644,2.436,0,.9893-.242,1.8947-.728,2.716-.485.8027-1.204,1.4467-2.156,1.932-.933.4667-2.09.7-3.472.7h-7.112ZM134.7147,30.7556h4.508c1.326,0,2.352-.308,3.08-.924.747-.6347,1.12-1.512,1.12-2.632,0-1.1013-.382-1.9787-1.148-2.632-.746-.672-1.782-1.008-3.108-1.008h-4.452v7.196ZM134.7147,21.6836h4.368c1.27,0,2.231-.2987,2.884-.896.672-.5973,1.008-1.4093,1.008-2.436,0-.9893-.336-1.7827-1.008-2.38-.653-.5973-1.642-.896-2.968-.896h-4.284v6.608ZM149.0737,32.7156v-13.888h2.352v13.888h-2.352ZM150.2497,15.8316c-.466,0-.858-.1493-1.176-.448-.298-.3173-.448-.7187-.448-1.204,0-.448.15-.8213.448-1.12.318-.2987.71-.448,1.176-.448.448,0,.831.1493,1.148.448.318.2987.476.6813.476,1.148,0,.448-.158.8307-.476,1.148-.317.3173-.7.476-1.148.476ZM161.5207,33.0516c-1.307,0-2.483-.2987-3.528-.896-1.046-.5973-1.876-1.4373-2.492-2.52-.598-1.1013-.896-2.3893-.896-3.864s.308-2.7533.924-3.836c.616-1.1013,1.446-1.9507,2.492-2.548,1.064-.5973,2.249-.896,3.556-.896,1.306,0,2.482.2987,3.528.896,1.045.5973,1.866,1.4467,2.464,2.548.616,1.0827.924,2.3613.924,3.836s-.308,2.7627-.924,3.864c-.616,1.0827-1.456,1.9227-2.52,2.52-1.046.5973-2.222.896-3.528.896ZM161.5207,31.0916c.802,0,1.549-.196,2.24-.588.69-.4107,1.25-1.008,1.68-1.792.429-.784.644-1.764.644-2.94,0-1.1947-.215-2.184-.644-2.968-.411-.784-.962-1.372-1.652-1.764-.691-.392-1.428-.588-2.212-.588s-1.531.196-2.24.588c-.691.392-1.251.98-1.68,1.764-.43.784-.644,1.7733-.644,2.968,0,1.176.214,2.156.644,2.94.429.784.98,1.3813,1.652,1.792.69.392,1.428.588,2.212.588ZM171.4337,32.7156v-13.888h2.1l.168,2.408h.028c.467-.84,1.111-1.5027,1.932-1.988.822-.504,1.774-.756,2.856-.756,1.083,0,2.026.224,2.828.672.803.4293,1.428,1.1013,1.876,2.016.448.896.672,2.0347.672,3.416v8.12h-2.352v-7.868c0-1.4373-.308-2.52-.924-3.248-.616-.728-1.502-1.092-2.66-1.092-.802,0-1.521.196-2.156.588-.616.392-1.11.9613-1.484,1.708-.354.728-.532,1.6333-.532,2.716v7.196h-2.352ZM193.3467,33.0516c-1.326,0-2.502-.2987-3.528-.896-1.027-.616-1.839-1.4653-2.436-2.548-.579-1.1013-.868-2.38-.868-3.836,0-1.4747.289-2.7533.868-3.836.578-1.0827,1.381-1.9227,2.408-2.52,1.045-.616,2.249-.924,3.612-.924,1.362,0,2.529.308,3.5.924.97.5973,1.717,1.3907,2.24,2.38.522.9707.784,2.0347.784,3.192v.616c0,.2053-.01.4387-.028.7h-11.62v-1.82h9.324c-.056-1.2693-.486-2.2587-1.288-2.968-.784-.7093-1.774-1.064-2.968-1.064-.803,0-1.55.1773-2.24.532-.691.3547-1.251.8773-1.68,1.568-.411.672-.616,1.5307-.616,2.576v.784c0,1.1387.214,2.0907.644,2.856.429.7653.989,1.344,1.68,1.736.709.3733,1.446.56,2.212.56.97,0,1.782-.224,2.436-.672.653-.448,1.129-1.0547,1.428-1.82h2.324c-.243.8587-.644,1.624-1.204,2.296-.56.672-1.26,1.204-2.1,1.596-.822.392-1.783.588-2.884.588ZM207.7107,32.7156c-.84,0-1.568-.1307-2.184-.392s-1.092-.7-1.428-1.316c-.317-.6347-.476-1.484-.476-2.548v-7.728h-2.408v-1.904h2.408l.308-3.332h2.044v3.332h4.088v1.904h-4.088v7.728c0,.896.178,1.5027.532,1.82.355.3173.98.476,1.876.476h1.456v1.96h-2.128ZM215.4407,32.7156l-4.004-13.888h2.352l3.164,11.872-.42-.028,3.416-11.844h2.744l3.444,11.844-.42.028,3.108-11.872h2.38l-4.004,13.888h-2.52l-3.584-12.292h.448l-3.584,12.292h-2.52ZM239.3407,33.0516c-1.307,0-2.483-.2987-3.528-.896-1.045-.5973-1.876-1.4373-2.492-2.52-.597-1.1013-.896-2.3893-.896-3.864s.308-2.7533.924-3.836c.616-1.1013,1.447-1.9507,2.492-2.548,1.064-.5973,2.249-.896,3.556-.896s2.483.2987,3.528.896c1.045.5973,1.867,1.4467,2.464,2.548.616,1.0827.924,2.3613.924,3.836s-.308,2.7627-.924,3.864c-.616,1.0827-1.456,1.9227-2.52,2.52-1.045.5973-2.221.896-3.528.896ZM239.3407,31.0916c.803,0,1.549-.196,2.24-.588.691-.4107,1.251-1.008,1.68-1.792.429-.784.644-1.764.644-2.94,0-1.1947-.215-2.184-.644-2.968-.411-.784-.961-1.372-1.652-1.764s-1.428-.588-2.212-.588-1.531.196-2.24.588c-.691.392-1.251.98-1.68,1.764s-.644,1.7733-.644,2.968c0,1.176.215,2.156.644,2.94.429.784.98,1.3813,1.652,1.792.691.392,1.428.588,2.212.588ZM249.2547,32.7156v-13.888h2.1l.224,2.772h.028c.336-.728.737-1.316,1.204-1.764.485-.4667,1.054-.8027,1.707-1.008.654-.224,1.41-.336,2.269-.336v2.464h-.644c-.654,0-1.26.084-1.82.252-.542.168-1.018.4293-1.428.784-.411.3547-.728.84-.952,1.456-.224.5973-.336,1.3347-.336,2.212v7.056h-2.352ZM267.8067,32.7156l-6.748-7.644,6.076-6.244h2.884l-6.972,7.084.028-1.68,7.728,8.484h-2.996ZM259.0987,32.7156V12.6956h2.352v20.02h-2.352ZM277.3517,33.0516c-1.101,0-2.091-.1867-2.968-.56-.877-.392-1.587-.9333-2.128-1.624-.523-.7093-.849-1.54-.98-2.492h2.408c.112.4853.317.9333.616,1.344.299.4107.7.7467,1.204,1.008.523.2427,1.148.364,1.876.364.672,0,1.223-.0933,1.652-.28.429-.2053.747-.4667.952-.784.205-.336.308-.6907.308-1.064,0-.5413-.14-.952-.42-1.232-.261-.2987-.663-.532-1.204-.7-.523-.1867-1.148-.364-1.876-.532-.56-.1307-1.129-.2893-1.708-.476-.579-.1867-1.111-.42-1.596-.7-.467-.2987-.849-.6627-1.148-1.092-.28-.448-.42-.9893-.42-1.624,0-.8027.205-1.512.616-2.128.411-.616.989-1.1013,1.736-1.456.765-.3547,1.661-.532,2.688-.532,1.475,0,2.679.364,3.612,1.092.952.728,1.503,1.7827,1.652,3.164h-2.324c-.075-.728-.373-1.288-.896-1.68-.504-.4107-1.195-.616-2.072-.616-.859,0-1.512.1773-1.96.532s-.672.8213-.672,1.4c0,.3547.121.6627.364.924.261.2613.635.4853,1.12.672.504.1867,1.101.364,1.792.532.877.2053,1.699.448,2.464.728.765.28,1.391.6907,1.876,1.232.504.5227.756,1.2693.756,2.24.019.8587-.196,1.6147-.644,2.268-.429.6533-1.045,1.1667-1.848,1.54-.784.3547-1.727.532-2.828.532Z" fill="#fff" stroke-width="0"/></g></svg>