<svg width="18" height="18" viewBox="0 0 18 18" fill="none" xmlns="http://www.w3.org/2000/svg">
  <path d="M1.21612 12.9284C1.00431 13.5978 1.46323 14.3024 2.16925 14.4081L2.62816 14.4786C3.12238 14.5491 3.51069 14.9366 3.61659 15.4299L3.68719 15.8879C3.7931 16.5925 4.49912 17.0153 5.20514 16.8039L5.66405 16.663C6.15827 16.5221 6.68778 16.6982 6.97019 17.121L7.2526 17.5086C7.67621 18.0723 8.48813 18.178 9.01765 17.6847L9.37066 17.3676C9.75897 17.0153 10.2885 16.9448 10.7474 17.1915L11.171 17.4029C11.8064 17.7552 12.5831 17.4733 12.8302 16.8039L13.0067 16.3811C13.1832 15.9231 13.6774 15.606 14.1716 15.6413L14.6305 15.6765C15.3365 15.7117 15.9367 15.1128 15.8661 14.4081L15.8307 13.9501C15.7954 13.4569 16.0779 12.9636 16.5721 12.7875L16.9957 12.6113C17.6664 12.3294 17.9135 11.5543 17.5605 10.9554L17.2428 10.5678C16.9957 10.145 17.0663 9.58133 17.384 9.19378L17.7017 8.84145C18.1606 8.31297 18.09 7.50264 17.4899 7.07985L17.1016 6.83322C16.678 6.55137 16.5015 6.02289 16.6427 5.52964L16.7839 5.07162C16.9957 4.40221 16.5368 3.69757 15.8307 3.59187L15.3718 3.52141C14.8776 3.45094 14.4893 3.06339 14.3834 2.57014L14.3128 2.11212C14.2069 1.40748 13.5009 0.984696 12.7949 1.19609L12.3359 1.33702C11.8417 1.47795 11.3122 1.30179 11.0298 0.879L10.7474 0.491447C10.3238 -0.072267 9.51186 -0.177963 8.98235 0.315286L8.62934 0.632375C8.24103 0.984696 7.71151 1.05516 7.2526 0.808536L6.82899 0.597143C6.19357 0.244822 5.41694 0.526679 5.16984 1.19609L4.99333 1.61887C4.81683 2.07689 4.32261 2.39398 3.8284 2.35875L3.44009 2.28828C2.73407 2.25305 2.13395 2.852 2.20455 3.55664L2.23985 4.01466C2.27515 4.50791 1.99274 5.00116 1.49853 5.17732L1.07492 5.35348C0.404196 5.63533 0.15709 6.41044 0.5101 7.00939L0.757207 7.39694C1.00431 7.81972 0.933712 8.38344 0.616003 8.77099L0.298294 9.12331C-0.16062 9.65179 -0.0900176 10.4621 0.5101 10.8849L0.898411 11.1315C1.32202 11.4134 1.49853 11.9419 1.35732 12.4351L1.21612 12.9284ZM6.37007 7.6788L7.92332 9.26424L11.6652 5.56487L13.2891 7.18555L9.54716 10.8497L7.92332 12.4704L6.29947 10.8497L4.74622 9.29947L6.37007 7.6788Z" fill="#28A745"/>
</svg>
