<?xml version="1.0" standalone="no"?>
<!DOCTYPE svg PUBLIC "-//W3C//DTD SVG 1.1//EN" "http://www.w3.org/Graphics/SVG/1.1/DTD/svg11.dtd">
<svg xmlns="http://www.w3.org/2000/svg">
<metadata>Copyright (C) 2020 by original authors @ fontello.com</metadata>
<defs>
<font id="synapseicons" horiz-adv-x="1000" >
<font-face font-family="synapseicons" font-weight="400" font-stretch="normal" units-per-em="1000" ascent="850" descent="-150" />
<missing-glyph horiz-adv-x="1000" />
<glyph glyph-name="check-circle" unicode="&#xe800;" d="M500 805c-250 0-454-205-454-455s204-455 454-455 455 205 455 455-205 455-455 455z m-91-682l-227 227 64 64 163-164 346 346 63-64-409-409z" horiz-adv-x="1000" />

<glyph glyph-name="chevron-down" unicode="&#xe801;" d="M848 623l-348-337-348 337-106-104 454-442 455 442-107 104z" horiz-adv-x="1000" />

<glyph glyph-name="chevron-up" unicode="&#xe802;" d="M848 77l-348 337-348-337-106 104 454 442 455-442-107-104z" horiz-adv-x="1000" />

<glyph glyph-name="close" unicode="&#xe803;" d="M955 713l-92 92-363-363-363 363-91-92 363-363-363-363 91-92 363 364 363-364 92 92-363 363 363 363z" horiz-adv-x="1000" />

<glyph glyph-name="crash-helmet" unicode="&#xe804;" d="M902 464c-12 76-39 144-82 202-26 35-77 70-139 96-66 27-141 43-210 43-77 0-145-18-203-52-68-40-119-102-153-184-59-145 8-299 15-316a19 19 0 0 1 9-9l569-300a19 19 0 0 1 19 0c59 36 113 119 147 219l0 1 0 0c10 28 17 58 23 88 14 72 16 145 5 212z m-186-481l-553 291a454 454 0 0 0-28 101c-11 67-6 127 16 180 30 74 76 130 136 165 52 31 114 47 184 47 64 0 133-14 195-40 56-23 101-54 123-84a400 400 0 0 0 64-132 2734 2734 0 0 0-125 20c-111 21-203 46-266 72l-1 1a92 92 0 0 1-37 7 91 91 0 0 1-91-90v0c0-6 0-112 27-167 9-20 48-50 260-125 87-32 174-60 211-71-29-78-71-143-115-175z m149 475c9-63 8-131-5-199a642 642 0 0 0-17-65c-36 11-121 38-208 69-66 24-120 45-161 63-69 30-79 43-80 45-9 19-15 46-18 72 14-8 31-13 48-13 51 0 92 40 92 91 0 8-1 16-3 23 134-43 300-66 349-73 1-4 2-9 3-13z m-387 63c0-30-24-53-54-53a53 53 0 0 0-53 53c0 29 24 52 53 52 30 0 54-23 54-52z m-67-14a19 19 0 0 1 27 0 19 19 0 0 1 0 27 19 19 0 0 1-27 0 19 19 0 0 1 0-27z m391-278a19 19 0 0 1 24 11c30 85 20 201 19 206a19 19 0 0 1-21 17 19 19 0 0 1-17-21c0-1 10-113-17-189a19 19 0 0 1 12-24z m-122-298l-554 292a19 19 0 0 1-26-8 19 19 0 0 1 8-25l554-292a19 19 0 0 1 26 7 19 19 0 0 1-8 26z" horiz-adv-x="1000" />

<glyph glyph-name="database" unicode="&#xe805;" d="M500 805c-201 0-364-91-364-202 0-112 163-202 364-202s364 90 364 202c0 111-163 202-364 202z m-364-303v-152c0-112 163-202 364-202s364 90 364 202v152c0-112-163-202-364-202s-364 90-364 202z m0-253v-151c0-112 163-203 364-203s364 91 364 203v151c0-112-163-202-364-202s-364 90-364 202z" horiz-adv-x="1000" />

<glyph glyph-name="download" unicode="&#xe806;" d="M136-105h728v107h-728v-107z m728 589h-208v321h-312v-321h-208l364-375 364 375z" horiz-adv-x="1000" />

<glyph glyph-name="ellipsis-v" unicode="&#xe807;" d="M523 123a114 114 0 1 0 0-228 114 114 0 0 0 0 228z m0 341a114 114 0 1 0 0-228 114 114 0 0 0 0 228z m0 341a114 114 0 1 0 0-228 114 114 0 0 0 0 228z" horiz-adv-x="1000" />

<glyph glyph-name="file" unicode="&#xe808;" d="M546 486v250l250-250h-250z m-319 319c-50 0-91-41-91-91v-728a91 91 0 0 1 91-91h546a91 91 0 0 1 91 91v546l-273 273h-364z" horiz-adv-x="1000" />

<glyph glyph-name="folder-plus" unicode="&#xe809;" d="M409 714l91-91h364a91 91 0 0 0 91-91v-455a91 91 0 0 0-91-91h-728a91 91 0 0 0-90 91v546c0 50 40 91 90 91h273z m227-228v-136h-136v-91h136v-136h91v136h137v91h-137v136h-91z" horiz-adv-x="1000" />

<glyph glyph-name="info-circle" unicode="&#xe80a;" d="M455 486h91v91h-91v-91z m45-500c-200 0-364 164-364 364s164 364 364 364 364-163 364-364-163-364-364-364z m0 819a455 455 0 1 1 0-910 455 455 0 0 1 0 910z m-45-682h91v273h-91v-273z" horiz-adv-x="1000" />

<glyph glyph-name="loading" unicode="&#xe80b;" d="M477 598v-124l171 165-171 166v-124c-188 0-341-148-341-331 0-65 20-125 53-176l63 60a237 237 0 0 0-30 116c0 137 114 248 255 248z m288-72l-62-60a243 243 0 0 0 30-116c0-137-115-248-256-248v124l-170-165 170-166v124c189 0 341 148 341 331a321 321 0 0 1-53 176z" horiz-adv-x="1000" />

<glyph glyph-name="lock-open" unicode="&#xe80c;" d="M773 502c24 0 47-10 64-26 17-16 27-38 27-61v-433c0-23-10-45-27-61a93 93 0 0 0-64-26h-546c-50 0-91 39-91 87v433c0 23 10 45 27 61a93 93 0 0 0 64 26h323a87 87 0 0 1 86 86 127 127 0 0 1-40 92 140 140 0 0 1-96 38c-36 0-71-14-96-38-15-14-25-30-32-47-9-24-29-45-54-45s-46 21-40 45a214 214 0 0 0 61 108 233 233 0 0 0 161 64c30 0 59-6 87-17 28-11 53-27 74-47 21-20 38-44 49-70 11-26 17-54 17-83v-41a46 46 0 0 1 46-45z m-273-390c24 0 47 9 64 25a85 85 0 0 1 27 62c0 23-10 45-27 61a93 93 0 0 1-64 25c-24 0-47-9-64-25a85 85 0 0 1-27-61c0-23 10-45 27-62 17-16 40-25 64-25z" horiz-adv-x="1000" />

<glyph glyph-name="logo" unicode="&#xe80d;" d="M609 595l-321-186 39-66 320 185-38 67z m23-476l-320 184-38-67 319-184 39 67z m74 43l0 371h77l0-371h-77z m123 335a160 160 0 0 1 58 218 159 159 0 0 1-217 57 160 160 0 0 1-59-217 159 159 0 0 1 218-58z m-40 69a80 80 0 0 1 29 109 79 79 0 0 1-109 28 80 80 0 0 1-29-108 79 79 0 0 1 109-29z m-129-659a160 160 0 0 1 218 59 159 159 0 0 1-59 218 160 160 0 0 1-217-60 159 159 0 0 1 58-217z m40 69c38-22 87-8 109 30a79 79 0 0 1-29 109 80 80 0 0 1-109-30 79 79 0 0 1 29-109z m-405 211a160 160 0 0 1 59 218 159 159 0 0 1-218 57 160 160 0 0 1-58-218 159 159 0 0 1 217-57z m-39 69a80 80 0 0 1 29 108 79 79 0 0 1-109 29 80 80 0 0 1-29-109 79 79 0 0 1 109-28z" horiz-adv-x="1000" />

<glyph glyph-name="minus-circle" unicode="&#xe80e;" d="M500-105c251 0 455 204 455 455s-204 455-455 455c-251 0-454-204-454-455s203-455 454-455z m273 546h-546v-182h546v182z" horiz-adv-x="1000" />

<glyph glyph-name="question-circle" unicode="&#xe80f;" d="M455 77h91v91h-91v-91z m45 728a455 455 0 1 1 0-910 455 455 0 0 1 0 910z m0-819c-200 0-364 164-364 364s164 364 364 364 364-163 364-364-163-364-364-364z m0 637a182 182 0 0 1-182-182h91a91 91 0 1 0 182 0c0-91-136-80-136-227h91c0 102 136 113 136 227a182 182 0 0 1-182 182z" horiz-adv-x="1000" />

<glyph glyph-name="search" unicode="&#xe810;" d="M383 805a338 338 0 0 0 338-338c0-84-31-161-81-220l14-14h41l260-260-78-78-260 260v41l-14 14a339 339 0 0 0-220-81 338 338 0 1 0 0 676z m0-104a233 233 0 0 1-234-234 233 233 0 0 1 234-234 233 233 0 0 1 234 234 233 233 0 0 1-234 234z" horiz-adv-x="1000" />

<glyph glyph-name="sort" unicode="&#xe811;" d="M500 38l-157 161-70-72 227-232 227 232-70 72-157-161z m0 624l157-160 70 71-227 232-227-232 70-71 157 160z" horiz-adv-x="1000" />

<glyph glyph-name="star" unicode="&#xe812;" d="M500 111l281-170-75 320 249 215-327 28-128 301-128-301-326-28 247-215-74-320 281 170z" horiz-adv-x="1000" />

<glyph glyph-name="star-o" unicode="&#xe813;" d="M500 196l-171-103 45 194-151 131 199 17 78 184 78-184 199-17-151-131 45-194-171 103z m455 280l-327 27-128 302-128-302-326-27 247-215-74-320 281 170 281-170-75 320 249 215z" horiz-adv-x="1000" />

<glyph glyph-name="timer" unicode="&#xe814;" d="M804 544l-16-14 14-17c53-62 84-142 84-228 0-201-170-367-386-367-103 0-201 39-274 108-72 69-112 162-112 259 0 97 40 190 112 259 73 69 171 108 274 108a393 393 0 0 0 242-82l15-12 14 14 50 48c11-10 21-19 31-30l-48-46z m-545-490c64-61 151-95 241-95 90 0 177 34 241 95 64 61 100 144 100 231 0 87-36 170-100 231-64 61-151 95-241 95-90 0-177-34-241-95-64-61-100-144-100-231 0-87 36-170 100-231z m264 425v-214h-46v214h46z m-137 303h228v-41h-228v41z" horiz-adv-x="1000" />

<glyph glyph-name="trash-o" unicode="&#xe815;" d="M864 757h-171l-48 48h-244l-49-48h-170v-96h682v96z m-633-720c0-26 10-50 28-68a98 98 0 0 1 69-28h390a98 98 0 0 1 68 28c19 18 29 42 29 68v576h-584v-576z" horiz-adv-x="1000" />

<glyph glyph-name="warning" unicode="&#xe816;" d="M541 271h-82v163h82v-163z m0-163h-82v82h82v-82z m-495-122h909l-455 773-454-773z" horiz-adv-x="1000" />

<glyph glyph-name="check" unicode="&#xe817;" d="M133 363l-87-89 282-288 627 638-88 90-539-549-195 198z" horiz-adv-x="1000" />

<glyph glyph-name="manager" unicode="&#xe818;" d="M476 631c53 0 95 43 95 95 0 53-42 96-95 96-52 0-95-43-95-96 0-52 43-95 95-95z m-143-238h286c29 0 48 19 48 48v24c0 66-53 119-119 119h-143c-67 0-119-53-119-119v-24c0-29 19-48 47-48z m-142-286c52 0 95 43 95 96 0 52-43 95-95 95-53 0-96-43-96-95 0-53 43-96 96-96z m71-47h-143c-67 0-119-53-119-119v-24c0-29 19-48 48-48h285c29 0 48 19 48 48v24c0 66-52 119-119 119z m500 47c53 0 95 43 95 96 0 52-42 95-95 95-53 0-95-43-95-95 0-53 42-96 95-96z m71-47h-142c-67 0-120-53-120-119v-24c0-29 20-48 48-48h286c28 0 47 19 47 48v24c0 66-52 119-119 119z m-204 109l-105 62v115h-95v-115l-105-62 47-81 105 58 105-58 48 81z" horiz-adv-x="952" />

<glyph glyph-name="users" unicode="&#xe81b;" d="M500 668c-36 0-71-14-96-40-26-25-40-60-40-96 0-36 14-71 40-97 25-25 60-39 96-39 36 0 71 14 96 39 26 26 40 61 40 97 0 36-14 71-40 96-25 26-60 40-96 40z m-273-98c-30 0-59-12-80-34-21-21-33-50-33-80 0-15 3-30 8-44 6-13 14-26 25-36 11-11 23-19 37-25 14-6 28-9 43-9 40 0 75 21 95 52-30 39-49 86-49 138 0 9 0 18 2 27-15 7-31 11-48 11z m546 0c-17 0-33-4-47-11 1-9 1-18 1-27 0-52-19-99-49-138 20-31 55-52 95-52 15 0 29 3 43 9 14 6 27 14 37 25 11 10 19 23 25 36 5 14 8 29 8 44 0 15-3 30-8 43-6 14-14 27-25 37-10 11-23 19-37 25-14 6-28 9-43 9z m-273-265c-91 0-273-46-273-137v-91h546v91c0 91-182 137-273 137z m-333-44c-76-14-167-49-167-108v-76h136v91c0 36 14 67 31 93z m666 0c18-26 31-57 31-93v-91h136v76c0 59-91 94-167 108z" horiz-adv-x="1000" />

<glyph glyph-name="user" unicode="&#xe81c;" d="M500 714c48 0 95-19 129-54 34-34 53-80 53-128 0-48-19-95-53-129-34-34-81-53-129-53-48 0-94 19-129 53-34 34-53 81-53 129 0 48 19 94 53 128 35 35 81 54 129 54z m0-455c201 0 364-81 364-182v-91h-728v91c0 101 163 182 364 182z" horiz-adv-x="1000" />

<glyph glyph-name="advanced-search" unicode="&#xe81d;" d="M889 739c-148 148-388 148-536 0-148-148-148-388 0-536 148-148 388-148 536 0 148 148 148 388 0 536z m-42-494c-125-125-327-125-452 0-125 125-125 327 0 452 125 124 327 124 452 0 124-125 124-327 0-452z m-480-113l-85 85-282-282 85-85 282 282z m504 308v63l-75 31c-2 6-4 11-7 17l30 75-44 44-74-31c-6 3-12 6-18 8l-31 74h-63l-31-74c-6-2-12-5-18-7l-74 29-44-44 30-73c-3-6-5-13-8-19l-73-31v-63l73-30c3-7 5-13 8-19l-30-74 45-44 73 30c6-3 12-5 19-7l31-74h63l31 74c6 2 11 5 17 7l75-30 44 45-31 74c3 6 5 11 7 17l75 32z m-251-63c-51 0-93 42-93 94 0 52 42 94 93 94 52 0 94-42 94-94 0-52-42-94-94-94z" horiz-adv-x="1000" />

<glyph glyph-name="sort-asc" unicode="&#xe831;" d="M485 398v-121h457v121h-457z m0 362v-121h229v121h-229z m0-724v-121h685v121h-685z m-228 603h143l-200 211-200-211h143v-784h114v784z" horiz-adv-x="1182" />

<glyph glyph-name="sort-desc" unicode="&#xe832;" d="M476 317v118h448v-118h-448z m0-355v118h224v-118h-224z m0 710v119h672v-119h-672z m-224-592h140l-196-207-196 207h140v770h112v-770z" horiz-adv-x="1182" />
</font>
</defs>
</svg>
